# xmcd CD database file generated by Grip 3.2.0
# 
# Track frame offsets:
#       150
#       23710
#       45487
#       63680
#       87890
#       113162
#       135465
#       152197
#       177570
#       199752
# 
# Disc length: 3005 seconds
# 
# Revision: 6
# Processed by: cddbd v1.5.1PL2 Copyright (c) Steve Scherf et al.
# Submitted via: Grip 3.2.0
# 
DISCID=840bbb0a
DTITLE=Claudio Baglioni - Oltre - CD 2
DYEAR=1990
DGENRE=Pop
TTITLE0=Noi no
TTITLE1=Signora delle ore scure
TTITLE2=Navigando
TTITLE3=Le mani e l'anima
TTITLE4=Mille giorni di te e di me
TTITLE5=Dov'è  dov'è
TTITLE6=Tieniamente
TTITLE7=Qui Dio non c'è
TTITLE8=La piana dei cavalli bradi
TTITLE9=Pace
EXTD=
EXTT0=
EXTT1=
EXTT2=
EXTT3=
EXTT4=
EXTT5=
EXTT6=
EXTT7=
EXTT8=
EXTT9=
PLAYORDER=
